<?xml version="1.0" encoding="utf-8"?>
<!-- Generator: Adobe Illustrator 25.3.1, SVG Export Plug-In . SVG Version: 6.00 Build 0)  -->
<svg version="1.1" id="Camada_1" xmlns="http://www.w3.org/2000/svg" xmlns:xlink="http://www.w3.org/1999/xlink" x="0px" y="0px"
	 viewBox="0 0 1252 863.8" style="enable-background:new 0 0 1252 863.8;" xml:space="preserve">
<style type="text/css">
	.st0{fill:#F6F2FF;}
	.st1{fill:#EDE4FF;}
	.st2{fill:#E4DBFA;}
	.st3{fill:#BEB2DA;}
	.st4{fill:#22C55E;}
	.st5{fill:#1EA84C;}
	.st6{fill:#42DB75;}
	.st7{fill:#FED194;}
	.st8{fill:#F59D4E;}
	.st9{fill:#FFFFFF;}
	.st10{fill:#AEB6B7;}
	.st11{opacity:0.54;fill:#D2D7DB;enable-background:new    ;}
	.st12{fill:#949A9B;}
	.st13{fill:#BBC3C4;}
	.st14{fill:#72120C;}
	.st15{fill:#530905;}
	.st16{fill:#6D378F;}
	.st17{fill:#0A031C;}
	.st18{fill:#D5301D;}
	.st19{fill:#242E41;}
	.st20{fill:#FFB113;}
	.st21{fill:#663E36;}
	.st22{fill:#59302A;}
	.st23{fill:#42211D;}
	.st24{fill:#27140E;}
	.st25{fill:none;stroke:#FFFFFF;stroke-width:4;stroke-linecap:round;stroke-miterlimit:10;}
	.st26{fill:#582279;}
	.st27{fill:#42115F;}
	.st28{fill:#FF920F;}
	.st29{fill:#FFAD01;}
	.st30{fill:#FAD6AB;}
	.st31{fill:#FFCF58;}
	.st32{fill:#F27204;}
	.st33{fill:#EDE2DB;}
	.st34{fill:#90898B;}
	.st35{fill:#EAECED;}
	.st36{fill:#515151;}
	.st37{opacity:0.32;fill:#B28567;enable-background:new    ;}
	.st38{fill:#593D2D;}
	.st39{opacity:0.47;fill:#FF920F;enable-background:new    ;}
	.st40{fill:none;stroke:#E4DBFA;stroke-width:5;stroke-linecap:round;stroke-miterlimit:10;}
</style>
<g>
	<g id="Camada_2_1_">
		<g id="Layer_1">
			<path class="st0" d="M708.8,431.8C655.3,735.4,366.1,810.5,184.2,747c0,0-203.8-76.6-149.4-259.6c23-77.4,4.6-139.6-6.3-197.4
				l0,0C13.5,211,12.6,140.1,150,49.8c92.5-60.7,205.4-62.5,305.9-24.1C614.2,86.2,741.5,246.1,708.8,431.8z"/>
			<path class="st1" d="M708.8,431.8C655.3,735.4,366.1,810.5,184.2,747c0,0-166.1-62.5-158.4-209.3c1-17.1,4-34,9-50.3
				c23-77.4,4.6-139.6-6.3-197.4c0.7,1.4,60.6,122.9,179.1,24.7C299.7,238.4,339,93.8,455.9,25.7c89.1,34,168.4,99.6,214.8,183.5
				C706.8,274.4,723.1,350.6,708.8,431.8z"/>
			<path class="st2" d="M708.8,431.8C655.3,735.4,366.1,810.5,184.2,747c0,0-77.4-29.1-124.1-94.3c-21.7-30.3-36.7-68.4-34.3-115
				c70.9,8.4,223.6,12.8,289.1-92.2c73-116.9,190.6-296.5,355.8-236.3c6.1,11.1,11.7,22.5,16.6,34.2
				C712.7,302.8,720.1,368.3,708.8,431.8z"/>
			<path class="st3" d="M708.8,431.8C655.3,735.4,366.1,810.5,184.2,747c0,0-77.4-29.1-124.1-94.3c0,0,90.2,57.2,250,11.6
				c174.8-49.8,232.7-326.1,377.3-421C712.7,302.8,720.1,368.2,708.8,431.8z"/>
			<path class="st4" d="M322.9,429.2c4.4,5.4,12.6,13.6,23.6,23.8c33,30.6,91,78.4,147.7,117.2c3.1,2.1,6.2,4.3,9.5,6.4
				c32.8,22,64.6,40.4,90.2,50.1c9.4,3.6,18.9,6.7,28.5,9.4h0.1c78.2,22.2,161.6,14.1,272.3-48.3c124.3-70.1,139-197.7,177-269.2
				c4.9-9,11.1-17.2,18.5-24.4c51.1-50.4,154.3-63.8,157.3-64.2c-2.7-2.1-102.9-75-267.8-101.9c-11.2-1.8-22.6-3.5-34-5
				c-158.5-21.1-330.7-12.7-404,3.4c-0.1,0-0.2,0.1-0.2,0.1c-0.1,0-0.2,0-0.2,0c-8.6,1.9-19.7,5.7-32.1,10.7
				c-0.2,0.1-0.4,0.2-0.7,0.2c-16.3,6.6-35,15.1-53.6,24.1c-33.2,16.1-66,33.6-84.7,43.7c-9.7,5.3-15.5,8.6-15.5,8.6l-23.3,0.5
				l-79.2,71c0,0-3.2,11.9-4.7,18.6c-0.7,3.4,10.2,38.8,23,56.9c9.1,12.9,20,27.5,30.4,40.9C308.9,412,316.5,421.5,322.9,429.2z"/>
			<path class="st5" d="M322.9,429.2c4.4,5.4,12.6,13.6,23.6,23.8c33,30.6,91,78.4,147.7,117.2c3.1,2.1,6.2,4.3,9.5,6.4
				c32.8,22,64.6,40.4,90.2,50.1c9.4,3.6,18.9,6.7,28.5,9.4h0.1c0,0,2.7-13.5,8.4-35.3c10.2-38.8,29.9-104.1,60.8-166.1
				c31.4-63.1,74.4-122.9,130.8-148.5c114.8-52.1,249.2,32.4,249.2,32.4l18.5-24.4l-144.4-171c-158.5-21.1-330.7-12.7-404,3.4
				c-0.1,0-0.2,0.1-0.2,0.1c-0.1,0-0.2,0-0.2,0c-8.6,1.9-19.7,5.7-32.1,10.7c-0.2,0.1-0.4,0.2-0.7,0.2c-16.3,6.6-35,15.1-53.6,24.1
				c-33.2,16.1-66,33.6-84.7,43.7c-9.7,5.3-15.5,8.6-15.5,8.6l-23.3,0.5l-65.3,57.4c0,0,0,0.1,0,0.1c-0.1,0.3-0.3,0.8-0.6,1.7
				c-2.8,8.5-15,44.3-16.4,51c-0.7,3.4,8.6,18.1,21.4,36.2c9.1,12.9,20,27.5,30.4,40.9C308.9,412,316.5,421.5,322.9,429.2z"/>
			<path class="st4" d="M1219.8,402.8l-6.3,4.8c0,0-270.7-277.8-585-292.6c0,0,188.2-24.2,272.2,3S1219.8,402.8,1219.8,402.8z"/>
			<path class="st4" d="M663.1,112.7c77,5.9,153.6,30.5,224.3,62.9c187.1,85.8,332.4,227.2,332.4,227.2
				c48.4-100.1,27.8-172.7,27.8-172.7c0,0-0.1,0-0.1-0.1C973.9,57.3,663.1,112.7,663.1,112.7z"/>
			<path class="st6" d="M663.1,112.7c77,5.9,153.6,30.5,224.3,62.9c176.4-33.7,354.5,51.7,360.1,54.4
				C973.9,57.3,663.1,112.7,663.1,112.7z"/>
			<path class="st7" d="M146.3,316.5c0,0-14.1,13.7-25.3,5.3c-0.8-3.9-1.9-7.7-3.3-11.4c-1.3-3.4-3-6.7-5-8.3
				c-0.6-0.5-1.3-0.9-2-1.3l0,0c-3.7-1.7-5.7,0.7-15.7-16.2c0,0-3.5,0.2-6.4-7.6s0.1-6.5,2.1-7.8c0,0-0.1-4.9,3.8-5.5l3.8-0.7
				c0,0-0.5-4.1,5.2-5.2c1-0.1,1.9,0.2,2.6,0.9c-0.1-0.2-3.4-7.4,1.6-10.3c0,0,2.1-0.6,4.2,1.8s10.2,5.3,15,5.2s7.3,2.6,8.6,9.5
				s-1.5,24.8-0.6,29.5S146.3,316.5,146.3,316.5z"/>
			<path class="st8" d="M106.2,258.6c1.3,1.1,2.7,2.1,4.3,2.9c1.5,0.8,3.1,1.6,4.8,2.2c1.7,0.5,3.4,1.2,4.8,2.2
				c1.5,1.1,2.5,2.8,2.7,4.6c0.1,1.8-0.2,3.6-1,5.3c-0.4,0.8-0.9,1.5-1.5,2.2c-0.5,0.7-1,1.4-1.5,2.2c-0.9,1.5-1.5,3.1-1.6,4.8
				c0,1.7,0.4,3.4,1.3,4.9l-0.3,0.1c-1.5-1.3-2.4-3.1-2.7-5.1c-0.2-2.1,0.2-4.1,1.1-6c0.4-0.9,0.9-1.7,1.4-2.5
				c0.4-0.6,0.8-1.2,1.1-1.9l0.3-0.9c0.1-0.3,0.2-0.7,0.2-1c0.1-0.6,0.1-1.2,0-1.8c-0.1-1.1-0.6-2-1.4-2.7c-0.5-0.4-1-0.8-1.6-1.1
				c-0.6-0.3-1.5-0.7-2.3-1.1c-1.7-0.8-3.2-1.8-4.7-3c-1.5-1.2-2.7-2.6-3.7-4.1L106.2,258.6z"/>
			<path class="st8" d="M111.6,262.3l2,4.4c0.7,1.5,1.4,2.9,2.1,4.4c0.7,1.5,1.5,2.9,2.4,4.2c0.4,0.6,1.1,1,1.9,0.9
				c0.7-0.2,1.4-0.7,1.8-1.3l0.3,0.1c0,0.5-0.1,1-0.3,1.5c-0.3,0.6-0.8,1-1.3,1.3c-0.7,0.3-1.5,0.3-2.2,0.1c-0.3-0.1-0.7-0.2-1-0.4
				c-0.3-0.2-0.6-0.4-0.8-0.6c-0.4-0.3-0.7-0.7-1.1-1.1c-0.3-0.3-0.6-0.7-0.8-1.1c-1.5-2.1-2.5-4.5-3-7c-0.4-1.7-0.4-3.5-0.1-5.3
				L111.6,262.3z"/>
			<path class="st8" d="M98.4,263l3.4,6.8c0.6,1.1,1.2,2.2,1.8,3.4c0.6,1.1,1.2,2.2,2,3.1c0.9,0.8,2,1.4,3.2,1.8
				c1.2,0.4,2.4,0.5,3.6,0.2c1.2-0.4,2.1-1.2,2.8-2.2c0.4-0.5,0.7-1,0.8-1.6c0.2-0.6,0.2-1.2-0.1-1.7l0.3-0.1
				c0.5,0.6,0.8,1.4,0.8,2.1c0,0.8-0.2,1.6-0.5,2.3c-0.2,0.3-0.3,0.7-0.6,1c-0.2,0.4-0.4,0.7-0.7,1c-0.6,0.7-1.4,1.2-2.2,1.6
				c-0.8,0.4-1.7,0.5-2.7,0.5c-0.8,0-1.7-0.1-2.5-0.3c-0.8-0.2-1.5-0.5-2.3-0.9c-0.8-0.4-1.5-0.9-2.1-1.5c-0.2-0.2-0.4-0.4-0.6-0.6
				l-0.1-0.2l-0.1-0.1l-0.2-0.2c-0.2-0.4-0.4-0.6-0.6-0.9c-0.3-0.6-0.6-1.2-0.9-1.8c-0.5-1.2-1-2.4-1.4-3.6
				c-0.9-2.5-1.4-5.1-1.6-7.7L98.4,263z"/>
			<path class="st8" d="M90.8,269.1c0.9,1.8,1.8,3.6,2.9,5.4c1,1.8,2.2,3.5,3.5,5c0.6,0.8,1.4,1.3,2.3,1.6c1,0.2,2,0.2,3,0
				c1-0.2,1.8-0.7,2.5-1.4c0.6-0.8,1-1.8,1.1-2.8h0.3c0.5,1.2,0.4,2.5-0.2,3.7c-0.7,1.3-1.8,2.3-3.2,2.7c-0.6,0.2-1.3,0.4-2,0.5
				c-0.3,0-0.7,0.1-1,0.1h-0.7c-0.1,0-0.2,0-0.3,0c-0.9-0.1-1.8-0.5-2.5-1.1c-0.5-0.4-1-0.8-1.5-1.3c-1.5-1.7-2.6-3.7-3.4-5.8
				c-0.8-2.1-1.1-4.3-1-6.5L90.8,269.1z"/>
			<path class="st8" d="M94.9,284.4c0.4-0.1,0.8-0.3,1.2-0.6c0.3-0.3,0.6-0.6,0.8-1c0.2-0.4,0.3-0.8,0.4-1.2c0-0.5,0-0.9,0-1.4h0.3
				c0.9,0.2,1.6,0.8,2,1.6c0.3,0.7,0.3,1.6,0,2.4c-0.4,0.8-1.2,1.4-2.1,1.6c-1,0.2-2-0.2-2.5-1.1L94.9,284.4z"/>
			<path class="st8" d="M117.7,310.4c-1.3-3.4-3-6.7-5-8.3c-0.6-0.5-1.3-0.9-2-1.3c0.2,0,7.9,1.4,14.3-1.5
				C130,297,124.4,306.4,117.7,310.4z"/>
			<path class="st9" d="M314.9,362.4c0,0-37.6,99-93.5,102.7c-20,1.3-35.5-6.8-47.6-18.9l0,0c-21.7-21.7-32.6-56.2-39.3-71.8
				c-10.4-24.2-5.9-24.8-5.9-24.8c-0.9-5.7-10.6-25.4-11.5-27.8s1.1-2.1,1.1-2.1c15.5-1.2,25.1-9.9,26.8-11.8s3,0.5,3,0.5
				c3.9,9.2,14.4,24.8,14.4,24.8c9.6-8.5,36.8,36.1,36.8,36.1c29.5-49.5,43.8-68.1,49.7-74.8c1-1.3,2.2-2.4,3.5-3.5L314.9,362.4z"/>
			<path class="st10" d="M162.4,333.4c0,0,0.3,9.6-22.6,15.6c0,0-4.6,0.3,1.1-3.5s15.4-11.6,16.2-20.3L162.4,333.4z"/>
			<path class="st10" d="M199.2,369.5c0,0,23.4,29.9,29.7,61.3c0,0,3,3.4,2.8-7.2c-0.2-18.6-29.6-59-29.6-59L199.2,369.5z"/>
			<path class="st11" d="M314.9,362.4c0,0-18,47.5-47.7,77.9c-13.2,13.5-28.6,23.7-45.8,24.8c-20,1.3-35.5-6.8-47.6-18.9
				c85.8,33,100.5-45.2,91.4-68s-15.3-81-15.3-81c-0.3-0.8-0.6-1.7-0.9-2.6c1-1.3,2.2-2.4,3.5-3.5l18.2,20.8L314.9,362.4z"/>
			<path class="st10" d="M267.2,440.3c21.7-35.6,9.9-65.6,4.9-80.3s-15.7-48.6-15.7-48.6c4.8-0.2,9.5,0,14.2,0.6l44.2,50.5
				C314.9,362.4,296.9,409.9,267.2,440.3z"/>
			<path class="st12" d="M290,411c0,0,4.1-15,0-25.9S273.1,344,273.1,344l31.2,41.7C304.3,385.7,295.8,402.4,290,411z"/>
			<path class="st13" d="M301.6,223.3c-4.7-0.1-9.1,2.2-11.8,6.1c-4.8,6.6,6.8,12.1,14.5,7.5S301.6,223.3,301.6,223.3z"/>
			<path class="st7" d="M307.9,228.1c0,0-2.8,6.9-10.7,1.8c-8.8-9.9-19.5-24.1-21.6-36.8c-3.7-22.5-30.1-69.5-48.2-61.4
				c0,0-16.7,3.8-27.6,16.4l0,0c-2.5,2.9-4.6,6.2-6.1,9.7c-8.8,20.5-3.1,24.1-17,32.9c-7.2,4.6-0.6,11.1,6.8,11.7s7,23.9,21,33.6
				s39.4,7.6,48,4.9c0,0,7.1,4.2,15.1,17.3c1.3,2.1,2.5,4,3.8,5.8l0,0c0,0,7.9,22.1,7,32s43-4.9,43.5-23.1S307.9,228.1,307.9,228.1z
				"/>
			<path class="st8" d="M269.3,198.1c0,0,3.1,27.5,18.3,20l-12.2-16.9L269.3,198.1z"/>
			<path class="st8" d="M257.9,177.3c0,0-4.1-3.6-16.2,10.9c0,0,4.6-23.1,11.8-22.7S257.9,177.3,257.9,177.3z"/>
			<path class="st8" d="M201.7,146.1c0,0,36.5-3.2,44.9,6.2s-17.3-24.2-17.3-24.2S209.1,138.3,201.7,146.1z"/>
			<path class="st14" d="M252.6,133c18.9,7.4,23,48.1,10.1,41.6c-17.2-8.7-21.2,25.4-22.6,9.6s5.2-14.7,3.1-30
				c-2-14.4-13.8-14-15.1-13.9c-18.9,1.6-40.3-2.6-44.3-11.5c-1.4-3.1-0.7-6.8,2.9-10.9c6.5-7.6,13-10,18.6-9.8l0,0
				c10.4,0.3,17.9,9.2,17.9,9.2S269.1,121.3,252.6,133z"/>
			<path class="st15" d="M243.2,154.2c0,0,6.6,15.8,10,19.8c0,0,3.8-1.2,4.7-0.2s-15.7-24-15.7-24L243.2,154.2z"/>
			<path class="st15" d="M208.6,108.4c0,0,12.3,25.9,22.2,32l7.2,2.1l-22.8-33L208.6,108.4z"/>
			<path class="st14" d="M269.2,195c0,0-1,21.7,16.2,19.9c0,0-7.7-13.3-6.6-17.2S269.2,195,269.2,195z"/>
			<path class="st15" d="M269.3,198.1c0,0,6.2,17.3,15.2,15.2l-2.5-5l-12.2-15.5C269.2,194.5,269,196.3,269.3,198.1z"/>
			<path class="st16" d="M298,143.3c2.5,4.7,4.5,9.6,6,14.7c8.9,30.5-20.5,53.9-20.5,53.9c-11.7-8.6-35.1-50.5-42.1-63.4
				c-1.3-2.4-2-3.8-2-3.8c-2-2-3.9-4-5.8-6.2C218,120.8,204,96.4,199.7,88.7c-0.9-1.6-0.3-3.7,1.4-4.6c0.6-0.3,1.2-0.4,1.8-0.4
				c9.9,1,26.3,30.6,26.3,30.6l0.4-0.1C260.5,102.7,285.4,119.7,298,143.3z"/>
			<path class="st9" d="M241.4,148.6c32.5-13.1,56.6-5.2,56.6-5.2l0,0c-12.6-23.6-37.5-40.6-68.4-29.2c-3.2,8.5,0.1,17.7,4,24.5
				C235.8,142.2,238.4,145.5,241.4,148.6z"/>
			<path class="st8" d="M252.5,240.9c0,0,10.4-6,14-9.5s-1.1,13.1-6.6,15.8C259.9,247.1,253.7,240.5,252.5,240.9z"/>
			<path class="st9" d="M199.5,134.6c-0.1,0.1-0.3,0.1-0.4,0.1c-0.4-0.1-10.1-2.6-11.6-8.6c-0.8-3.2,1-6.8,5.4-10.7
				c0.2-0.2,0.6-0.2,0.8,0c0.2,0.2,0.2,0.6,0,0.8c0,0-0.1,0.1-0.1,0.1c-4,3.5-5.7,6.7-5.1,9.5c1.3,5.3,10.7,7.8,10.8,7.8
				c0.3,0.1,0.5,0.4,0.4,0.7c0,0,0,0,0,0C199.7,134.4,199.6,134.5,199.5,134.6z"/>
			<path class="st8" d="M248.9,193.7c0.3-1.2,0.8-2.4,1.4-3.5c0.7-1.1,1.5-2.1,2.4-3c0.9-0.9,2.1-1.6,3.3-2.1
				c1.2-0.5,2.5-0.6,3.8-0.5c-1.2,0.1-2.4,0.5-3.6,1c-0.5,0.3-1.1,0.6-1.6,0.9c-0.5,0.4-1,0.7-1.4,1.2c-0.9,0.9-1.7,1.8-2.4,2.8
				C250.1,191.6,249.5,192.6,248.9,193.7z"/>
			<path class="st8" d="M259.4,189.1c-0.5-0.3-1-0.6-1.5-0.8c-0.5-0.2-1-0.5-1.5-0.6c-0.5-0.2-1-0.3-1.6-0.4
				c-0.6-0.1-1.1-0.1-1.7-0.1c0.5-0.3,1.1-0.5,1.7-0.5c0.6,0,1.2,0,1.8,0.2c0.6,0.2,1.1,0.5,1.5,0.9
				C258.7,188.2,259.1,188.6,259.4,189.1z"/>
			<path class="st17" d="M195.4,174.1c0,0-2,3.6-0.1,4.5s3-5.1,2.7-5.6C197.2,171.7,196,172.8,195.4,174.1z"/>
			<path class="st18" d="M217.2,203.5c-1.6,4.7-2.2,8.6-4.3,11.9c-1.2,1.9-2.7,3.4-4.6,4.7c-1.6,1.1-3.8,1.2-5.5,0.2
				c-4.4-2.1-8.1-8.4-8.1-8.4C202.8,213.9,217.2,203.5,217.2,203.5z"/>
			<circle class="st8" cx="206.4" cy="183.8" r="1.2"/>
			<circle class="st8" cx="210.1" cy="187.2" r="0.8"/>
			<circle class="st8" cx="200.5" cy="186.3" r="1.2"/>
			<circle class="st8" cx="205.5" cy="190.8" r="1.5"/>
			<path class="st19" d="M193.6,159.7c0.1-0.8,0.6-1.5,1.3-1.7c2.3-1,8.1-2.8,10.6,2.2c3.1,6.3-1.3,3.1-3.5-0.2
				C200,157,193.4,162.7,193.6,159.7z"/>
			<path class="st7" d="M914.9,791.7c0,0-31.4-10.4-65-22.4c-31-11.2-63.9-23.8-75.5-31c-24.2-15.1,55.3-31.2,55.3-31.2
				s16.1,9.1,31.3,19.6c4.6,3.2,9.6,6,13.1,9.7c37.7,39.3,45.2,6.4,45.2,6.4L914.9,791.7z"/>
			<path class="st8" d="M832,708.2c0,0,0.9,27.7-6.3,38.1s-10.9,9.7-10.9,9.7l-30.6-12.3l38-40.2L832,708.2z"/>
			<path class="st20" d="M914.9,791.7c0,0-31.4-10.4-65-22.4c1-21.1,11.1-42.7,11.1-42.7c4.6,3.2,9.1,6.5,13.1,9.7
				c17,13.8,23.2,16.2,23.2,16.2l33.7,15.2L914.9,791.7z"/>
			<path d="M932.6,735.9c2.1-0.3,4.2-0.2,6.2,0.2l17.9,121.3c0,0-0.7,3.2-6.7,5.2c-1.6,0.5-3.3,0.9-5,1.1
				c-10.6,1.5-26.2-42.9-35.8-57c-12.3-18.2-6.2-17.6-6.2-17.6c2.5-12.2,0.8-24.8-4.9-35.9c0,0-13.3-5,22.4-14.7
				C924.4,737.3,928.5,736.4,932.6,735.9z"/>
			<path class="st20" d="M932.6,735.9c2.1-0.3,4.2-0.2,6.2,0.2l17.9,121.3c0,0-0.7,3.2-6.7,5.2L932.6,735.9z"/>
			<path class="st9" d="M921.3,805c0.1,0.5-0.2,0.9-0.7,1c-3.4,0.6-6.5,2.1-9.1,4.3c-0.4,0.3-0.9,0.3-1.2-0.1
				c-0.3-0.3-0.3-0.9,0-1.2c2.9-2.4,6.3-4.1,10-4.8C920.8,804.2,921.3,804.5,921.3,805L921.3,805z"/>
			<path class="st9" d="M924.9,816.2c0.1,0.5-0.2,0.9-0.7,1c-5.4,1-7.5,3.5-7.5,3.5c-0.3,0.4-0.8,0.4-1.2,0.1c0,0,0,0,0,0
				c-0.4-0.3-0.4-0.8-0.1-1.2c0.1-0.1,2.4-2.9,8.5-4.1C924.4,815.5,924.8,815.8,924.9,816.2C924.9,816.2,924.9,816.2,924.9,816.2z"
				/>
			<path class="st9" d="M916.2,793.8c0.1,0.5-0.2,0.9-0.7,1c0,0,0,0,0,0c-9.2,1.7-8.8,7-8.8,7c0,0.5-0.3,0.9-0.8,0.9
				c-0.5,0-0.9-0.3-0.9-0.8c0-0.3-0.5-6.9,10.2-8.9C915.7,793,916.2,793.3,916.2,793.8L916.2,793.8z"/>
			<path class="st21" d="M829,704.8c-1.7,11.6-6.2,22.1-11,30.6c-4.6,8-10.1,15.4-16.5,22.1c0,0-157.3-37.6-185.5-55.8
				s-82.1-141.6-82.1-141.6s81.8-124.9,93.4-96c4.3,10.8,14.4,37.8,25.3,67.5c18.4,50,39.2,107.5,39.2,107.5
				C731.2,640.9,829,704.8,829,704.8z"/>
			<path class="st22" d="M817.9,735.4c-4.6,8-10.1,15.4-16.5,22.1c0,0-65.8-15.7-120-31.8l0,0c-29.5-8.7-55.5-17.6-65.5-24
				c-28.2-18.2-82.1-141.6-82.1-141.6s81.8-124.9,93.4-96c1.2,2.9,2.7,6.9,4.7,11.9c5.2,13.5,12.7,33.9,20.7,55.6
				c0,0-38.3,41.8-32.3,81.5S651.9,705,817.9,735.4z"/>
			<path class="st23" d="M681.4,725.7c-29.5-8.7-55.5-17.6-65.5-24c-28.2-18.2-82.1-141.6-82.1-141.6s81.8-124.9,93.4-96
				c1.2,2.9,2.7,6.9,4.7,11.9c13.2,77.2-48.5,81.9-41,137.1S628.5,704.5,681.4,725.7z"/>
			<path class="st7" d="M610.7,668.5c0,0-33.1-0.5-68.7-2c-32.9-1.4-68.1-3.6-81.3-7.1c-27.6-7.2,43.5-46.3,43.5-46.3
				s18.1,3.9,35.7,9.3c5.4,1.7,10.9,2.9,15.4,5.4c47.7,26.2,45.1-7.4,45.1-7.4L610.7,668.5z"/>
			<path class="st8" d="M506.6,613.6c0,0,9.1,26.2,5.4,38.2s-7.5,12.5-7.5,12.5l-32.9-2.6l24.2-49.7L506.6,613.6z"/>
			<path class="st20" d="M610.7,668.5c0,0-33.1-0.5-68.7-2c-5.4-20.4-2.1-44.1-2.1-44.1c5.4,1.7,10.7,3.5,15.4,5.4
				c20.4,8.1,27,8.5,27,8.5l36.7,4.5L610.7,668.5z"/>
			<path d="M602.9,597.7c1.8-1.6,3.7-2.9,5.9-3.9L704.4,695c0,0,1.4,3.5-2.8,9.2c-1.2,1.6-2.5,3-3.9,4.3
				c-8.9,8.2-52.3-22.8-70.3-29.7c-23.3-8.9-17.3-12.3-17.3-12.3s-7.3-19.7-28-30.2c0,0-15.6,3.9,11.3-28.3
				C596.2,604.3,599.4,600.8,602.9,597.7z"/>
			<path class="st20" d="M602.9,597.7c1.8-1.6,3.7-2.9,5.9-3.9L704.4,695c0,0,1.4,3.5-2.8,9.2L602.9,597.7z"/>
			<path class="st9" d="M637.5,669.2c0.3,0.4,0.3,1,0,1.3c-2.7,2.8-4.7,6.2-5.7,10c-0.2,0.5-0.8,0.7-1.3,0.5
				c-0.3-0.2-0.6-0.5-0.6-0.9c1.1-4.1,3.2-7.9,6.1-11C636.4,668.8,637,668.8,637.5,669.2L637.5,669.2z"/>
			<path class="st9" d="M648.1,677.4c0.3,0.4,0.3,1,0,1.3c-4.4,4.5-4.7,8.1-4.7,8.1c-0.2,0.5-0.7,0.8-1.3,0.7
				c-0.4-0.1-0.6-0.4-0.7-0.8c0-0.2,0.3-4.3,5.2-9.4C647.1,677,647.7,677,648.1,677.4L648.1,677.4z"/>
			<path class="st9" d="M625.4,662.1c0.3,0.4,0.3,1,0,1.3c-7.5,7.6-3.7,12.2-3.6,12.3c0.3,0.4,0.3,1-0.1,1.4c-0.4,0.3-1,0.3-1.4-0.1
				c-0.2-0.2-5-6.1,3.7-14.9C624.4,661.7,625,661.7,625.4,662.1L625.4,662.1z"/>
			<path class="st21" d="M616.6,525.7c-9.6,14.4-28,26.2-49.9,35.8c-61,26.8-149,36.5-149,36.5c40.4,0,86.5,13.2,86.5,13.2
				s-0.4,10.3-1.3,20.4c-0.8,8.6-1.9,17-3.4,19c-3.5,4.4-9.4,27.2-9.4,27.2c-26.3,1.8-52.8,1.6-79.1-0.5l0,0
				c-66.8-5-123.7-19.7-139.5-26.5c-21.9-9.4-53.2-35.1-38.8-73.3s159.1-102.1,159.1-102.1c7.1-13.6,30.4-27,58.5-38.4
				c53.5-21.8,124.7-36.7,136-33C603.4,409.8,652.9,471.2,616.6,525.7z"/>
			<path class="st22" d="M616.6,525.7c-9.6,14.4-28,26.2-49.9,35.8c-61,26.8-149,36.5-149,36.5c40.4,0,86.5,13.2,86.5,13.2
				s-0.1,2.6-0.3,6.4l0,0c0,0.2,0,0.5,0,0.7v0.1c0,0.2,0,0.4,0,0.7c0,0,0,0.1,0,0.2c0,0.2,0,0.4,0,0.6c0,0.1,0,0.2,0,0.3
				s0,0.3,0,0.4v0.4v0.2c0,0.2,0,0.4,0,0.6l0,0c-0.2,3-0.4,6.5-0.7,9.9c-0.8,8.6-1.9,17-3.4,19c-3.5,4.4-9.4,27.2-9.4,27.2
				c-41.1,1.4-82.2-0.4-123-5.4c-29.9-3.7-56.5-20.5-72.7-45.9c-17.7-28-4.4-37.2,64.8-40c4.8-0.2,9.9-0.5,15.4-0.8
				s11.2-0.8,17.2-1.3h0.1l4.2-0.4c24.4-2.4,145.1-16.7,178.7-72.2c37.5-61.8-40.8-81.4-151.6-50.5c-2,0.6,27.7-23.5,27.1-24.3
				l1.4-0.6c53.1-21.4,123.1-36,134.3-32.3c8.1,2.6,23.2,17.5,33.3,38.2C631,465.8,635.9,496.7,616.6,525.7z"/>
			<path class="st23" d="M619.5,442.4c-12.1-5.3-41.9-10.4-67.8-10s-96.5,15.3-96.5,15.3h-1.8c-2.2-3.2-2.9-7.2-1.9-11
				c53.4-21.5,123.4-36.1,134.6-32.5C594.3,406.8,609.5,421.7,619.5,442.4z"/>
			<path class="st13" d="M521.4,422.6c0,0,73-13.2,77.6-15.1c0,0-17.8-18.8-23.4-18.8S521.4,422.6,521.4,422.6z"/>
			<path class="st23" d="M465.4,602.6c-52.8,27.4-145.6,16.6-162.3,7.8s-8.8-10-8.8-10c48.6,6.7,123.3-2.4,123.3-2.4
				c7.9,0,15.8,0.4,23.7,1.1l0,0c7.4,0.7,14.9,1.8,22.2,3.1L465.4,602.6z"/>
			<path class="st24" d="M441.4,599.1c-81.7,24.2-147,1.3-147,1.3c48.6,6.7,123.3-2.4,123.3-2.4C425.6,598,433.5,598.4,441.4,599.1z
				"/>
			<path class="st13" d="M268.3,282.9c0,1.1,24.6,70.7,40.1,25.2S296.1,277,296.1,277l-10.6,11.7l-11.8-13.9L268.3,282.9z"/>
			<path class="st25" d="M535.4,471.2c0,0-319.4,114-249.9,146.4s179.9,25.7,179.9,25.7"/>
			<path class="st16" d="M582.6,391.2c0,0-69.7,38.4-88.6,42.2s-102.3,42.2-102.3,42.2l-1.2-1.3c-4.8-4.8-23.9-23.7-64.7-61.4
				c-48-44.3-73.1-111.8-75.9-115.7s-2.4-4.5-2.4-4.5c2.8-5,7.4-9.8,11.7-13.7c3.2-2.9,6.6-5.6,10.1-8.1
				c2.1,21.9,10.2,40.4,28.4,29.1s9.2-64.5,9.2-64.5l14.8-9.8c1.4-0.9,3.2-0.9,4.6,0L582.6,391.2z"/>
			<path class="st26" d="M582.6,391.2c0,0-69.7,38.4-88.6,42.2c-9.7,1.9-36.6,13.1-60.4,23.5c-22.3,9.7-41.9,18.7-41.9,18.7
				l-1.2-1.3C412,399.6,318.5,292,304.3,304c-16.7,14.2-26.2,5.1-28,0s-5.1-1-5.1-1c-4.9-7.5-8.9-15.5-12-23.9
				c3.2-2.9,6.6-5.6,10.1-8.1c2.1,21.9,10.2,40.4,28.4,29.1s9.2-64.5,9.2-64.5l14.7-9.6l0.1-0.1c1.4-0.9,3.2-0.9,4.6,0L582.6,391.2z
				"/>
			<path class="st5" d="M285.5,288.7c0,0-6.5,1.7-29.1-6.9c0,0-2.6,0.7,2.1-5.2c3.2-3.7,7.4-6.3,12.1-7.5L285.5,288.7z"/>
			<path class="st27" d="M582.6,391.2c0,0-69.7,38.4-88.6,42.2c-9.7,1.9-36.6,13.1-60.4,23.5c0.8-22.8-5.8-57.6-41.5-94.2
				c-44.3-45.3-63.3-106-70.5-136.7l0.1-0.1c1.4-0.9,3.2-0.9,4.6,0L582.6,391.2z"/>
			<polygon class="st28" points="588.3,399.5 468,436.9 435.1,404.7 347.6,319.2 483,262.9 506.9,294 506.9,294 			"/>
			<path class="st29" d="M651.6,270.5l-12.9,26.3l-13.8,28.1l-0.7,1.4l-35.9,73.1L483.1,263.1l-0.1-0.2l0,0l5.3-8.7l29.6-49.1
				l2.2-3.7l34.2-56.7l0,0l0,0L651.6,270.5z"/>
			<path d="M554.3,144.7L554.3,144.7c-0.6,1.3-13.7,29.2-30.4,58.9c-10.1,17.9-21.5,35-34.2,51.2c-2.8,3.5-4.9,6-5.9,7.3l-0.8,0.9
				l5.3-8.7l29.6-49.1l2.2-3.7l0,0L554.3,144.7z"/>
			<polygon class="st30" points="554.3,144.7 554.3,144.7 554.3,144.7 554.2,144.7 520.2,201.3 518,205 488.4,254.2 483.8,262 
				483.1,263.1 463.2,271.4 443.3,279.6 347.6,319.2 381,262.5 418.3,199 			"/>
			<polygon class="st31" points="554.3,144.7 554.3,144.7 554.3,144.7 554.2,144.7 520.2,201.3 518,205 488.4,254.2 483.8,262 
				483.1,263.1 463.2,271.4 443.3,279.6 347.6,319.2 381,262.5 418.3,199 			"/>
			<path class="st32" d="M588.3,399.5L468,436.9l-32.9-32.1c0,0,95.9,0.8,71.8-110.7L588.3,399.5z"/>
			<polygon points="383.9,257.5 518,205 520.2,201.3 386.1,253.8 			"/>
			<polygon class="st33" points="545.9,371.2 478.5,397.2 492.5,414.5 563.5,392.8 			"/>
			<polygon class="st34" points="535.7,386.2 541.5,393.4 552.7,389.6 547,382.6 			"/>
			<polygon class="st34" points="487,398.6 488.5,400.5 515.6,391.7 514.2,390 			"/>
			<polygon class="st34" points="491,403.5 492.7,405.6 522.8,395.9 521.2,394 			"/>
			<polygon class="st34" points="495,408.4 496.7,410.5 526.8,400.8 525.2,398.9 			"/>
			<polygon class="st35" points="447.9,330.6 396.5,348.9 378.1,329 431.7,311.3 			"/>
			<polygon class="st36" points="400.2,344.6 397.5,345.6 384,330.9 386.8,330 			"/>
			<polygon class="st36" points="400.7,344.5 399.7,344.8 386.2,330.2 387.3,329.8 			"/>
			<polygon class="st36" points="402.9,343.7 401.9,344 388.5,329.4 389.6,329 			"/>
			<polygon class="st36" points="405.2,342.9 404.1,343.2 390.8,328.6 391.9,328.3 			"/>
			<polygon class="st36" points="407.8,342 406.4,342.5 393.2,327.9 394.7,327.4 			"/>
			<polygon class="st36" points="409.6,341.3 408.5,341.7 395.4,327.1 396.5,326.8 			"/>
			<polygon class="st36" points="411.8,340.6 410.7,340.9 397.7,326.4 398.7,326 			"/>
			<polygon class="st36" points="414.3,339.7 412.5,340.3 399.5,325.8 401.4,325.1 			"/>
			<polygon class="st36" points="416.1,339 415.1,339.4 402.1,324.9 403.2,324.5 			"/>
			<polygon class="st36" points="418.3,338.3 417.2,338.6 404.4,324.1 405.4,323.8 			"/>
			<polygon class="st36" points="420.4,337.5 419.4,337.9 406.6,323.4 407.7,323 			"/>
			<polygon class="st36" points="422.9,336.6 421.2,337.3 408.4,322.8 410.3,322.2 			"/>
			<polygon class="st36" points="424.7,336 423.7,336.4 411,321.9 412.1,321.6 			"/>
			<polygon class="st36" points="426.8,335.3 425.8,335.6 413.2,321.2 414.3,320.9 			"/>
			<polygon class="st36" points="428.9,334.5 427.9,334.9 415.4,320.5 416.5,320.1 			"/>
			<polygon class="st36" points="431,333.8 428.9,334.5 416.4,320.1 418.5,319.4 			"/>
			<polygon class="st36" points="433.1,333 432.1,333.4 419.8,319 420.8,318.7 			"/>
			<polygon class="st36" points="435.2,332.3 434.2,332.7 421.9,318.3 422.9,318 			"/>
			<polygon class="st36" points="437.3,331.6 436.3,331.9 424.1,317.6 425.1,317.2 			"/>
			<polygon class="st36" points="439.4,330.9 438.4,331.2 426.2,316.9 427.2,316.5 			"/>
			<polygon class="st36" points="441.4,330.2 438.9,331 426.7,316.7 429.3,315.9 			"/>
			<polygon class="st36" points="443.5,329.4 442.5,329.8 430.5,315.5 431.5,315.1 			"/>
			<polygon points="452.6,259.3 442.4,281.5 456.6,299 475.7,291.6 462.1,274 471.4,251.3 			"/>
			<path class="st37" d="M443.6,279.5l-0.1,3.4c0,0,12-5.6,18.7-8.9c0.2-0.8,0.5-1.7,0.8-2.5L443.6,279.5z"/>
			<path class="st38" d="M523.8,296.1l0.7-1l0.6-1.3c0.2-0.2,0.3-0.4,0.5-0.6l0.1-0.3l0.2-0.3l0,0v-0.1l0,0l0.1-0.2l0.3-0.6l0.4-0.6
				l0.1-0.2l0,0l0,0l0.4-0.9l0.4-0.5l0.3-0.8l0.7-0.9l0.9-1.8l0.7-1l0.5-1.2l0.2-0.2l-0.1-0.1l0,0c0.2-0.3,0.3-0.7,0.4-1.1l0.1-0.1
				h0.1v-0.6c0.3,0.3,0.6,0.1,1-0.4l-0.1-0.7l0.5-0.4l0.5-1.2l0.8-1.4l0.5-1.1c0.1,0.1,0.4-0.2,0.9-1l0.1-1l0.6-0.8
				c0.1-0.2,0.2-0.5,0.3-0.8c0.2,0.1,0.5-0.2,0.9-0.8l0.1-0.5l0.1-0.1h0.1l0.1-0.1v-0.2l0.8-1.2l0.5-1.1l0.4-0.5l0.3-0.8l0.6-0.9
				l0.9-1.8l0.7-1l0.5-1.2l0.2-0.2l-0.1-0.1l0.2-0.4l0.6-0.8l0.2-0.8l0.3-0.2l0.4-0.9l0.7-0.9l0.1-0.5l0.7-0.9l0.4-1l1.9-2.9
				l0.3-0.8l0.1-0.1l0.4-0.5l0.4-1.1l0.5-0.7v-0.1l0,0c0.1-0.1,0.1-0.2,0.2-0.2l0.1-0.4l0.3-0.3l0-0.1l0.3-0.8l0.3-0.1l0.8-1.9
				l0.7-0.7l0.2-0.8l0.4-0.8l0.8-1.1c-0.2-0.2,0-0.6,0.4-1.3c0,0,0.6-1,0.8-0.9l0.1,0.1c0.1-0.2,0.1-0.4,0.2-0.6
				c0.2-0.2,0.3-0.4,0.5-0.6l0.1-0.4l0.3-0.3l0.1-0.1l0.3-0.8l0.3-0.1l0.8-1.9l0.7-0.7l0.2-0.8l0.4-0.8l0.7-1.1
				c-0.2-0.2,0-0.6,0.3-1.3l0.7-1.5c-0.1,0.3-0.1,0.5,0,0.6l0.1,0.1c0.1-0.2,0.2-0.6,0.4-0.9c0.2,0,0.5-0.3,0.8-0.8l0.1-0.5l0.1-0.1
				h0.1l0-0.1V228l0.8-1.1l0.5-1l0.4-0.5l0.3-0.8l0.6-0.9l0.8-1.7l0.7-1l0.5-1.1l0.2-0.2l-0.1-0.1l0,0c0.2-0.3,0.3-0.6,0.3-1v-0.1
				h0.1v-0.6c0.3,0.3,0.6,0.2,1-0.3l-0.1-0.7l0.5-0.4l0.5-1.1l0.7-1.3l0.5-1c0,0,0.1,0,0.1,0h0.1l0.1-0.2c0.2-0.2,0.4-0.4,0.5-0.7
				l0.1-0.9l0,0c0.2,0.1,0.5-0.1,0.8-0.5l-0.1-0.6l0.1-0.2l0.4-0.3l0.5-1.1l0.7-1.3l0.4-1c0.1,0.1,0.4-0.2,0.9-0.9l0.1-0.9l0.5-0.8
				c0.3-0.6,0.4-0.9,0.2-1.1l-0.5-0.5h-0.1l-0.2,0.6l-0.8,1.5l-1,1.4c0.1,0.1,0.1,0.3-0.1,0.6l-0.7,1.2l-0.3,0.4v0.2l-0.3,0.4
				l-0.2,0.6h-0.1l-0.2,0.6l-0.6,1l-0.6,0.9l-0.1,0.2l-0.6,0.9c0.1,0.1,0.1,0.3-0.1,0.6l-0.7,1.2l-0.3,0.4v0.2l-0.3,0.4l-0.5,1.3
				l-1.2,1.7l-0.3,0.7c-0.4,0.3-0.7,0.7-0.9,1.1l0.1,0.1v0.2l0.1,0.1l0.2-0.3l0.1,0.1l-0.3,0.5l-0.6,0.6l-0.1,0.4l-0.3,0.4l-0.2,0.6
				l-0.4,0.8l-0.8,1.5l-0.5,0.4l-0.1,0.1v0.2l-0.5,0.6l-0.6,1.2l-0.9,0.9v0.1l-0.2,0.1l-0.2,0.3l-0.6,0.8l-1.2,2.8l-0.6,0.8
				l-0.6,1.5L556,237l-0.6,0.9l0.1,0.1c-0.2,0.3-0.3,0.7-0.3,1.1l-0.3-0.3h-0.3l-0.2,0.3l-0.6,0.8l-1.2,2.8l-0.6,0.8l-0.6,1.5
				l-1.3,2.2l-0.6,0.9l0.1,0.1c-0.2,0.3-0.3,0.6-0.3,0.9l-0.1-0.1c-0.1-0.1-0.4,0.2-0.9,0.8v0.6c-0.2,0-0.5,0.4-1,1.1l-0.2,0.8
				l-0.9,1.6l-0.3,0.8l-0.1-0.1l-0.1,0.2l-0.4,1l-0.5,0.1l-0.3,1l-0.3,0.5l-0.4,0.4l-0.1,0.4l-0.2,0.3h-0.3l-0.2,0.9l-0.4,0.4
				c-0.3,0.5-0.5,1.1-0.7,1.7l0,0c-0.1-0.1-0.5,0.3-1.1,1.2l0.1,0.1v0.2l0.1,0.1l0.2-0.3l0.1,0.1l-0.3,0.5l-0.6,0.6l-0.1,0.5
				l-0.4,0.4l-0.2,0.7l-0.5,0.8l-1,2l-0.5,0.4l-0.1,0.1v0.2l-0.5,0.6l-0.6,1.3l-0.9,0.9v0.2l-0.1,0.4l-0.9,1.6l-1.1,1.5
				c0.1,0.1,0.1,0.3-0.1,0.7l-0.7,1.3l-0.4,0.4v0.2l-0.4,0.4l-0.5,1.4l-1.3,1.9l-0.3,0.8c-0.4,0.4-0.7,0.8-1,1.2l0.1,0.1v0.2
				l0.1,0.1l0.2-0.3l0.1,0.1l-0.3,0.5l-0.6,0.6l-0.1,0.5l-0.4,0.4l-0.3,0.7l-0.5,0.8l-1,2l-0.5,0.4c-0.4,0.4-0.8,0.8-1,1.3l0.1,0.1
				v0.2l0,0l-0.3,0.7l-1,1l0.1,0.4l0,0l-0.2,0.6l-0.5,0.8l-0.7,1.5l0.7,0.9l0.3-0.4L523.8,296.1z"/>
			<path class="st38" d="M581.8,208.6l-0.2-0.5l-0.8-1l-0.9-1.4l-0.8-0.9c0.2-0.1,0-0.5-0.5-1.3l-0.8-0.6l-0.5-0.9
				c-0.4-0.6-0.8-0.8-0.9-0.7l-0.7,0.2l0,0.1l0.5,0.4l1.1,1.6l0.9,1.7c0.1,0,0.3,0.1,0.6,0.4l0.9,1.2l0.2,0.5l0.2,0.1l0.2,0.5
				l0.4,0.5v0.1l0.4,0.4l0.7,1l0.6,1l0.2,0.2l0.5,1c0.1-0.1,0.3,0.1,0.5,0.4l0.9,1.2l0.2,0.5h0.2l0.2,0.5l1,1.1l1.1,2l0.5,0.6
				c0.2,0.5,0.4,1,0.7,1.4h0.1l0.2,0.1h0.1l-0.2-0.3h0.1l0.3,0.5l0.3,0.8l0.4,0.3l0.2,0.5l0.5,0.5l0.5,0.8l1.3,1.7l0.2,0.6l0.1,0.1
				l0.2,0.1l0.4,0.7l0.9,1.1l0.5,1.2l0.2,0.1l0.3,0.3l1,1.5l0.9,1.6c0.1,0,0.3,0.1,0.5,0.4l0.8,1.2l0.2,0.5h0.2l0.2,0.5l1,1l1.1,1.9
				l0.3,0.4v0.1l0.4,0.6l0.4,0.4c-0.1,0,0,0.3,0.4,0.9l0.8,0.8l0.1,0.3l0.1,0.1h0.2l0.1,0.3l1,1.2l0.1,0.2c0,0.2-0.1,0.5-0.2,0.7
				l-1,1.1l-0.1,0.4v0.1h-0.1c-0.1,0.2-0.1,0.3,0,0.4l0.3,0.3c0,0.2,0,0.4-0.1,0.6l-0.3,0.6l-0.4-0.4h-0.2l-0.4,0.7v0.6v0.1
				l-0.4,0.5c-0.1,0.3-0.5,1.1-0.8,1.9l0-0.7l-0.4,0.7l-0.8,1.9c-0.1-0.1-0.3,0.2-0.7,0.8l-0.3,0.7h-0.1v0.4l-0.1,0.2l-0.4,0.6
				l0.1,0.1v0.2c0,0,0,0.1,0,0.1l0-0.1h-0.1l-0.4,0.9l-0.6,0.4l-0.5,1.5l-0.4,0.7v1.6l-0.4,0.7l-0.3-0.3c0.2-0.3,0.2-0.6,0-0.7
				l-0.1-0.1H595l-1,2.3c-0.1-0.1-0.3,0.2-0.7,0.8l-0.2,0.4v0.4v0.1l-0.3-0.1c-0.3,0.8-0.4,1.2-0.2,1.4l-0.9,1.3v0.2h-0.2h-0.2v0.1
				v0.5l0,0l-0.1,0.3l-0.5,0.8l-0.3,0.8l-0.6,0.9v0.6l-0.2,0.3c-0.2-0.2-0.3-0.2-0.3,0l-0.7,1.4c-0.1,0.3-0.2,0.6-0.2,0.9h-0.3
				l-0.4,0.7c-0.1,0.1,0,0.3,0.1,0.4l-0.3,0.6h-0.3l-0.7,1.8l-0.3,0.4v0.1l-0.9,1.9l-0.3,0.3v0.5l-0.1,0.1h-0.1l-0.1,0.4l0.3,0.1
				l0.1,0.1l-0.1,0.2l-0.4-0.4h-0.3l-0.7,1.8l-0.8,1.3c-0.1,0.3-0.3,0.5-0.3,0.8H582l-0.4,0.7c-0.1,0.1,0,0.3,0.1,0.4l-0.3,0.6h-0.3
				l-0.7,1.8l-0.3,0.4l-0.1,0.1l-0.9,2l-0.3,0.3v0.5l-0.1,0.1h-0.1l-0.1,0.4l0.3,0.1l0.1,0.1l-0.1,0.2l-0.4-0.4h-0.3l-0.7,1.8
				l-0.8,1.3c-0.1,0.3-0.3,0.6-0.3,0.9l-0.1-0.1H576l-0.4,1l-0.6,0.8l-0.3,0.8l-0.6,0.9v0.6l-0.2,0.3c-0.2-0.1-0.3-0.2-0.3,0
				l-0.8,1.4c-0.1,0.3-0.2,0.7-0.3,1l0,0h-0.3v0.1v0.5l-0.3,0.6c-0.6,1.1-0.7,1.8-0.5,2.3l-0.2,0.3l-0.4-0.6h-0.3l-0.1,0.1l-0.1,0.5
				v0.1h-0.1c-0.1,0.2-0.1,0.4,0,0.5l-1,2.1l-0.4,0.2c-0.1,0.1,0,0.3,0.1,0.4l-0.2,0.4l-0.3,0.1v0.1v0.5l-0.4-0.2l-0.1,0.4l-0.1,0.1
				H568l-0.5,1.5c-0.2,0.3-0.4,0.5-0.6,0.4l-0.1,0.5l0.1,0.1h0.3l0.1,0.4l-0.3,0.4c-0.2,0.5-0.6,0.8-1.1,0.9l-0.1,0.2v0.3l-0.1,0.3
				c-0.1,0.1,0,0.3,0.2,0.5c-0.1,0.2-0.2,0.3-0.2,0.5c-0.2,0.1-0.5,0.4-0.7,0.2l-0.1-0.1h-0.1l-1,2.4l-1.3,2l-0.3,0.9l-0.2,0.2
				c0.1,0.1,0.1,0.5-0.2,1l-1.1,1.3l-0.1,0.4l-0.1,0.1h-0.1c-0.1,0.1-0.1,0.2-0.1,0.3h-0.1l-1,2.4l-1.3,2l-0.3,0.9l-0.2,0.2
				c0.1,0.1,0.1,0.5-0.2,1l-1.1,1.3l-0.1,0.4v0.1h-0.1l-1.5-1.3c-0.2-0.3-0.2-0.5,0.1-0.6h0.1c-0.3-0.4-0.7-0.7-1.1-1h0.1l0-0.1
				c-0.3-0.4-0.6-0.6-1-0.9l-0.1-0.1v-0.1l-0.6-0.2c0.4-0.2,0.4-0.5,0-1.1l-0.7-0.2l-0.2-0.6l-0.9-0.9l-1-1.2l-0.8-0.8
				c0.2-0.1,0-0.5-0.5-1.2l-0.8-0.5l-0.5-0.8c-0.2-0.2-0.4-0.4-0.6-0.5c0.2-0.2,0-0.5-0.5-1.1l-0.4-0.3l-0.1-0.1v-0.1l-0.1-0.1h-0.2
				l-0.8-1.2l-0.8-0.8l-0.3-0.6l-0.6-0.6l-0.6-0.9l-1.3-1.5l-0.7-1l-0.9-0.9l-0.1-0.3h-0.1l0,0c-0.3-0.3-0.6-0.5-0.9-0.7l-0.1-0.1
				v-0.1l-0.6-0.2c0.3-0.2,0.3-0.5,0-1.1l-0.7-0.2l-0.2-0.6L534,309l-1-1.3l-0.8-0.8c0,0,0-0.1,0-0.1v-0.1l-0.1-0.1
				c-0.1-0.3-0.3-0.5-0.5-0.8l-0.8-0.5v0c0.1-0.2,0.1-0.5-0.2-1l-0.6-0.1l-0.2-0.1l-0.2-0.5l-0.9-0.9l-1-1.3l-0.8-0.9
				c0.1-0.1,0-0.5-0.6-1.2l-0.8-0.5l-0.6-0.9c-0.5-0.5-0.8-0.7-1-0.6l-0.6,0.3v0.1l0.5,0.4l1.2,1.5l1,1.6c0.1-0.1,0.3,0.1,0.6,0.4
				l1,1.2l0.3,0.5h0.2l0.3,0.5l0.5,0.4v0.1l0.5,0.4l0.8,1l0.7,1l0.2,0.1l0.6,1c0.1-0.1,0.3,0.1,0.6,0.4l1,1.2l0.3,0.5h0.2l0.2,0.5
				l1.1,1l1.3,1.9l0.6,0.5c0.2,0.5,0.5,0.9,0.8,1.3l0.1,0h0.2h0.1l-0.2-0.3l0.1,0l0.4,0.4l0.4,0.8l0.4,0.3l0.3,0.5l0.5,0.5l0.6,0.7
				l1.5,1.6l0.2,0.6l0.1,0.1h0.2l0.4,0.7l1,1l0.6,1.2l0.2,0l0.3,0.2l1.2,1.4l1,1.6c0.1-0.1,0.3,0.1,0.6,0.3l0.9,1.1l0.2,0.5h0.2
				l0.2,0.5l1.1,1l1.2,1.8l0.3,0.3v0.1l0.4,0.5l0.5,0.4c-0.1,0,0,0.3,0.4,0.9l0.9,0.7l0.1,0.3l0.1,0.1h0.2l0.1,0.3l1,1.1l0.1,0.1
				l0.8-0.4l0,0l0.9-1.6l0.2-0.6h0.1l0.5-1.1l1.6-2.5l0.1-0.6l0.8-1.1l0.1-0.7l-0.1-0.1h-0.1l-0.1-0.1c0.1-0.3,0.1-0.5,0-0.8
				l0.5,0.4h0.3v-0.1l0.1,0.1c0.2-0.3,0.3-0.7,0.4-1l0.3-0.6l0.2-0.6h0.1l0.5-1.1l1.6-2.5l0-0.6l0.8-1.1l0.5-1.3l0.1,0.1
				c0.2-0.4,0.3-0.8,0.5-1.2l0,0l0.1-0.5l0.7-0.7l0.5-1.3l0.4-0.7l0.4-0.5l0-0.1v-0.2l0.4-0.5l0.2-0.6l0.3-0.4l0.3-0.9l0.7-0.7
				L570,310v-0.2l0.8-1.3l0.5-1.1l0.5-0.5c0.4-0.8,0.8-1.6,1.1-2.5l0,0h0.1l0.1-0.6l1.6-2.3l0.2-0.6l0.4-0.7l0.5-0.6v-0.5l0.4-0.5
				l0.2-0.3v-0.2l-0.1-0.1H576l0.2-0.5l0.4-0.1l0.4-0.6l0.8-1.3l0.2-0.8l0.2-0.2l0.1-0.5v-0.1h0.1l0.6-1.5l0.8-1.1l0.3-0.8l2.4-4
				c0.1-0.2,0.1-0.3,0.1-0.5l0,0l0.4-0.7l0.8-1.3l0.2-0.7l0.2-0.2l0.1-0.5l0.1-0.1h0.1l0.6-1.5l0.8-1.1l0.3-0.8l2.3-3.9
				c0.1-0.1,0.1-0.2,0.1-0.4l0.1-0.5l1.5-2.2l0.2-0.6l0.4-0.7l0.5-0.6v-0.5l0.4-0.5l0.2-0.3v-0.2l-0.1-0.1h-0.1
				c0.1-0.2,0.2-0.5,0.2-0.6c0.2,0,0.4-0.1,0.5-0.3l0.1-0.2l0.1-0.5v-0.1h0.1l0.2-0.6l0.4-0.5c0.2-0.4,0.3-0.8,0.4-1.2l0.5-0.4v-0.1
				v-0.2l0.1-0.1h0.1l0.1-0.5l0.3-0.7c0.8-1.5,1.7-3,2.7-4.5l0.5-1.3l0.2-0.3h0.2l0.6-1.6l1-1.5l0.2-0.6l-0.2-0.2l1.1-1.7v-0.1
				l0.7-1.1l0.1-0.5l1.6-2.5c0.1-0.3,0.2-0.6,0.2-0.8l0,0l0.8-1.5l0.2-0.6h0.3l0.2-0.4c0-0.2,0.1-0.3,0.2-0.5
				c0.1-0.2,0.2-0.4,0.3-0.5l-0.1-0.1l0,0l-0.5-0.7l-0.2-0.3l-1.8-1.8c-0.2-0.3-0.2-0.5,0.1-0.6h0.1c-0.3-0.4-0.6-0.8-1-1.1h0.1
				v-0.1c-0.2-0.4-0.5-0.7-0.9-0.9l-0.1-0.1v-0.1l-0.6-0.3c0.4-0.1,0.4-0.5,0.1-1.1l-0.7-0.2l-0.2-0.6l-0.8-1l-0.9-1.3l-0.8-0.9
				c0.2-0.1,0-0.5-0.4-1.2l-0.8-0.5l-0.4-1c-0.2-0.2-0.4-0.4-0.6-0.6c0.2-0.2,0.1-0.5-0.3-1.1l-0.4-0.3l-0.1-0.1v-0.1l-0.1-0.1
				l-0.2-0.1l-0.7-1.3l-0.8-0.9l-0.3-0.6l-0.6-0.6l-0.5-1l-1.2-1.6l-0.6-1.1l-0.8-1l-0.1-0.3h-0.1l0,0c-0.2-0.3-0.5-0.6-0.8-0.8
				l-0.1-0.1v-0.1l-0.6-0.3c0.4-0.1,0.4-0.5,0.1-1.1l-0.7-0.2l-0.2-0.6l-0.8-1l-0.9-1.3l-0.8-0.9c0,0,0-0.1,0-0.1v-0.1
				c0-0.1-0.1-0.1-0.1-0.2c-0.1-0.3-0.3-0.6-0.4-0.8l-0.8-0.6v-0.1c0.2-0.2,0.1-0.5-0.1-1L581.8,208.6L581.8,208.6z"/>
			<path class="st39" d="M638.7,296.8l1.1,1.5l-13.6,26.7l-0.8,0.5l-1.2,0.7c-8.4,5.1-17.6,8.8-27.2,10.9
				c-17.8,4.1-30.1,1.2-38.9-5.2c-0.3-0.2-0.6-0.5-1-0.7c-15.5-12.2-19.8-35.8-24.7-51c-0.2-0.4-0.3-0.9-0.4-1.3
				c-2.6-8-5.6-13.3-10.6-13c-12.3,0.8-18.8-5.6-31.8-11.2l-1.2-0.5l-0.2-0.1c-8-3.3-18.5-6.2-33.9-7.1
				c-42.3-2.3-74.1,18.9-74.1,18.9s0.2-1.2,0.7-3.5l37.4-63.5l135.9-54.4l0,0l97.3,125.9L638.7,296.8z"/>
			<polygon points="639.8,298.4 626.2,325.1 625.7,326.1 625.3,325.6 624.9,324.9 611.8,306.8 627.4,281.4 638.7,296.8 			"/>
			<path class="st9" d="M269,261.1c0,0-4.5,29.2,0.8,43c0,0,1.5,2.5,1.6-2.7s-0.4-19.3,8.8-16.8c0,0,3,0.2,5.4,4.2L269,261.1z"/>
			<path class="st7" d="M607,287c-2.5,3.8-10,1-10,1s8.8,14,9,19s-5.7,3.4-5.7,3.4c1.2,2.7,2.1,5.6,2.7,8.5c0.6,3.5-0.5,4.6-0.5,4.6
				c-4.6,1.9-7.7-2.4-7.7-2.4s0,2.1-4,2.9s-9.4-5.9-15.5-14.4s-11.7-11.9-11.7-11.9c-0.4,18.2-7.7,20.5-7.5,13
				c0.2-6.3-4-18.5-5.5-24.7c-0.3-1-0.4-1.9-0.5-2.9c-0.2-4-2.7-14.2-2.7-14.2l11.1-14.6c0,0,2.8,1.5,6.8,3.7
				c7.2,4.1,18.2,10.6,22.3,14.9C593.6,279.5,609.5,283.2,607,287z"/>
			<path class="st8" d="M565.1,257.9c-0.2,0.1-0.5,0.2-0.8,0.3c-2.2,5.1-5,10-8.4,14.4c-3,3.9-4.9,8.5-5.5,13.3
				c-0.2-1-0.4-1.9-0.5-2.9c-0.2-4-2.7-14.2-2.7-14.2l11.1-14.6C558.3,254.2,561.2,255.7,565.1,257.9z"/>
			<path class="st9" d="M565.5,255.6c-4.7,12.2-19.7,17.9-19.7,17.9l-20-14.7c0,0,0.9,1.9-8.1,2.3s-93.2-48.3-94-48.7l0,0l-52,64.1
				c-36.1-16.3-46-49.6-46.4-51.2l0,0l2.4-2.8l0,0c7-8.2,28.1-32.3,44.7-46.6c20.7-17.9,53.8-39.6,76.4-39.6
				c49.5,0,93.6,82.1,98,88.8s0,12,0,12L565.5,255.6z"/>
			<path class="st11" d="M423.7,212.4l-52,64.1c-36.1-16.3-46-49.6-46.4-51.2l2.4-2.9l0,0c0,0,8.6,20.7,23.7,31.7
				c15,11.1,33.2-29.9,46.7-40.7c4.9-4,9.7-5.2,13.8-5.1C416,208.5,420.2,209.9,423.7,212.4z"/>
			<path class="st8" d="M594.5,321.1c-3-4.1-5.7-8.3-8.4-12.5c-1.3-2.1-2.6-4.3-3.8-6.5c-1.3-2.2-2.4-4.5-3.2-6.8l0.3-0.1
				c1.8,1.8,3.4,3.7,5,5.8c1.6,1.9,3,4,4.3,6.1c1.3,2.1,2.5,4.3,3.6,6.6c1.1,2.4,2,4.8,2.6,7.4L594.5,321.1z"/>
			<path class="st8" d="M600.1,310.5c-2.2-3.5-4.2-7.1-6.2-10.8c-1-1.8-1.9-3.7-2.8-5.5c-0.9-1.9-1.8-3.7-2.6-5.7l0.3-0.1
				c1.6,1.4,3.1,3,4.4,4.7c1.3,1.6,2.4,3.4,3.3,5.2c1,1.8,1.8,3.7,2.5,5.7c0.7,2.1,1.2,4.2,1.3,6.4L600.1,310.5z"/>
			<path class="st8" d="M596.8,288.1c-0.9-1.2-1.6-2.4-2.5-3.6s-1.5-2.5-2.2-3.8l0.2-0.2c1,0,2,0.3,2.9,0.8c0.7,0.4,1.2,0.9,1.6,1.6
				c0.4,0.7,0.6,1.4,0.7,2.1c0.1,1-0.1,2-0.5,2.9L596.8,288.1z"/>
			<path class="st10" d="M423.7,212.4l-52,64.1c-36.1-16.3-46-49.6-46.4-51.2c10.6,19.4,32.2,45.5,43.3,44.5s47-54.3,46.8-56.4
				s-3.5-5-3.6-5.1C416,208.5,420.2,209.9,423.7,212.4z"/>
			<path class="st13" d="M525.8,258.8c0,0,10.8-7.2,16.3-14c0,0,4.9-0.3-10.7,18.1L525.8,258.8z"/>
			<path class="st5" d="M285.5,288.7c0,0,36.1-4.9,49.2-74.3c0,0-1.6-2.5-7.9,1.5s-16,13.5-16,13.5S307.5,266.8,285.5,288.7z"/>
			<path class="st9" d="M285.5,288.7c5.3-8.5,9.1-17.8,11.4-27.6c3.5-15.6,6.4-34.9,4.7-37.8s16.9,2.6,17.2,5.3s0.6,40.2,4.2,57.2
				C323.1,285.8,296.5,272.9,285.5,288.7z"/>
			<path class="st5" d="M281.7,289c0,0-16,3.7-10.6,19.8s14.9,18.7,14.9,18.7s-8.8-8.1-5-16s6.2-12.3,4.1-22.7L281.7,289z"/>
			<path class="st5" d="M284.3,291c0,0-0.8,11.3,10.9,11s15.3-6,15.3-6s-7.1,4.1-11.6,0s-6.8-6.6-14.1-7.4L284.3,291z"/>
			<path class="st40" d="M25.5,360.7c0,0-22.9-73.6-23-141.3c0-50,30.5-104.2,77.3-141.3"/>
			<path class="st40" d="M96.3,68.7c0,0,33.5-24,48.1-30.5"/>
		</g>
	</g>
</g>
</svg>
