<?xml version="1.0" encoding="utf-8"?>
<!-- Generator: Adobe Illustrator 26.4.1, SVG Export Plug-In . SVG Version: 6.00 Build 0)  -->
<svg version="1.1" id="Camada_1" xmlns="http://www.w3.org/2000/svg" xmlns:xlink="http://www.w3.org/1999/xlink" x="0px" y="0px"
	 viewBox="0 0 330 106" style="enable-background:new 0 0 330 106;" xml:space="preserve">
<style type="text/css">
	.st0{fill:#22C55E;}
</style>
<g>
	<path class="st0" d="M15,71.7c0,10.8,0,20.7,0,31c-4.6,0-8.7,0-13.2,0c0-24.7,0-49.2,0-74.2c4.1,0,8.4,0,12.8,0
		c0.2,1.5,0.4,3.1,0.8,5.4c5.9-6.1,12.6-8.5,20.5-6.8c11.3,2.4,18.7,13.3,18.2,27c-0.6,13.9-8.7,23.8-20.5,25
		C27,79.7,22.6,78.1,15,71.7z M39.9,52.9c0-8.8-4.8-14.7-12.1-14.8C20.1,38,14.9,43.9,15,52.7c0,9,5,14.8,12.7,14.7
		C35,67.4,39.9,61.7,39.9,52.9z"/>
	<path class="st0" d="M202.8,71.6c0,10.8,0,20.7,0,30.9c-4.5,0-8.6,0-13.1,0c0-24.7,0-49.2,0-74.1c4.2,0,8.4,0,12.7,0
		c0.2,1.6,0.4,3.2,0.7,5.5c5.8-5.8,12.2-8.8,20-7c2.1,0.5,4.2,1.1,6.1,2.1c9.2,4.6,14,15.6,12.4,28.3c-1.3,11-7.9,19-17.5,21.3
		C216.8,80.3,211.5,78.7,202.8,71.6z M227.8,53c0.1-8.8-4.6-14.7-11.9-14.9c-7.6-0.2-12.9,5.7-13,14.5c-0.1,8.8,5,14.7,12.6,14.8
		C223,67.5,227.7,61.9,227.8,53z"/>
	<path class="st0" d="M113.5,61.7c-3.6,12.9-17.8,20.1-31.9,16.7C67.3,74.9,58.7,60.9,62,46.6c3.3-14,17.1-22.4,31.9-19.6
		c13.3,2.6,22.2,15.1,20,28.7c-12.5,0-25.1,0-37.8,0c1.1,9.7,11.6,15.5,18.8,9.7C101,60.7,106.8,61.8,113.5,61.7z M99.6,47.4
		c-2.1-6.5-6.2-9.5-11.9-9.2c-5.5,0.2-9.6,3.6-10.8,9.2c2,0,4,0,5.9,0C88.2,47.4,93.7,47.4,99.6,47.4z"/>
	<path class="st0" d="M327.2,56c-12.8,0-25.4,0-38,0c2,10.2,12.5,15.3,19.7,9.2c5.8-5,11.6-2.9,17.6-3.5
		c-2.7,12.3-16.6,19.8-30.6,17.1c-14.2-2.8-23.4-16.1-21-30.4c2.3-13.9,15.6-23.5,30-21.6C319.4,28.7,328.8,40.5,327.2,56z
		 M312.6,47.2c-2-6.4-6.1-9.3-11.8-9.1c-5.6,0.3-9.6,3.5-10.9,9.1C297.3,47.2,304.8,47.2,312.6,47.2z"/>
	<path class="st0" d="M148.9,56.1c-15.3,0-27.2-11.2-27.3-25.9c-0.1-15.1,11.5-26.7,27-26.8c15.6-0.1,27.8,11.7,27.7,26.7
		C176.2,44.6,164.2,56.1,148.9,56.1z M162.1,29.6c-0.1-8.3-5.7-14.5-13.3-14.5c-7.4,0-13.1,6.4-13.2,14.6c0,8.5,5.9,14.9,13.5,14.7
		C156.7,44.2,162.2,37.9,162.1,29.6z"/>
	<path class="st0" d="M265,78.9c-2.1,0-3.7,0-5.3,0c-2.5,0-4.9,0-7.8,0c0-25.3,0-50.1,0-75.3c4.3,0,8.6,0,13.1,0
		C265,28.6,265,53.3,265,78.9z"/>
	<path class="st0" d="M135.1,87.8c-4.2,0-8.5,0-12.7,0c-2.3-12,9-24.3,23.6-26c16-1.8,29.3,9.4,30,25.8c-4.4,0-8.7,0-13.5,0
		c-1.3-7.7-4.7-14.1-14-14.3C141.7,73.2,137.9,77.6,135.1,87.8z"/>
</g>
</svg>
